<mxfile host="app.diagrams.net" modified="2020-08-24T01:56:53.633Z" agent="5.0 (Macintosh; Intel Mac OS X 10_14_6) AppleWebKit/537.36 (KHTML, like Gecko) Chrome/84.0.4147.125 Safari/537.36" etag="_jEWZcW82nyBiSMHOIPv" version="13.6.4" type="github" pages="2">
  <diagram id="-bwUwgzcoNaK2-YZ4em_" name="Page-1">
    <mxGraphModel dx="946" dy="519" grid="1" gridSize="10" guides="1" tooltips="1" connect="1" arrows="1" fold="1" page="1" pageScale="1" pageWidth="827" pageHeight="1169" math="0" shadow="0">
      <root>
        <mxCell id="0" />
        <mxCell id="1" parent="0" />
        <mxCell id="kCRBrZalbVwqJB-VtD9c-1" value="Flink Checkpoint Create" style="swimlane;html=1;childLayout=stackLayout;resizeParent=1;resizeParentMax=0;startSize=20;" parent="1" vertex="1">
          <mxGeometry x="130" y="30" width="550" height="380" as="geometry" />
        </mxCell>
        <mxCell id="kCRBrZalbVwqJB-VtD9c-2" value="&lt;span style=&quot;color: rgb(50 , 50 , 50) ; font-size: 13px ; font-weight: 400 ; background-color: rgba(255 , 255 , 255 , 0.01)&quot;&gt;PackagedProgramUtils&lt;/span&gt;" style="swimlane;html=1;startSize=20;" parent="kCRBrZalbVwqJB-VtD9c-1" vertex="1">
          <mxGeometry y="20" width="230" height="360" as="geometry" />
        </mxCell>
        <mxCell id="kCRBrZalbVwqJB-VtD9c-8" style="edgeStyle=orthogonalEdgeStyle;rounded=0;orthogonalLoop=1;jettySize=auto;html=1;entryX=0;entryY=0.5;entryDx=0;entryDy=0;" parent="kCRBrZalbVwqJB-VtD9c-2" source="kCRBrZalbVwqJB-VtD9c-5" target="kCRBrZalbVwqJB-VtD9c-7" edge="1">
          <mxGeometry relative="1" as="geometry" />
        </mxCell>
        <mxCell id="kCRBrZalbVwqJB-VtD9c-5" value="&lt;pre style=&quot;background-color: #2b2b2b ; color: #a9b7c6 ; font-family: &amp;#34;menlo&amp;#34; ; font-size: 9.0pt&quot;&gt;&lt;span style=&quot;color: #ffc66d&quot;&gt;createJobGraph&lt;/span&gt;&lt;/pre&gt;" style="shape=delay;whiteSpace=wrap;html=1;" parent="kCRBrZalbVwqJB-VtD9c-2" vertex="1">
          <mxGeometry x="30" y="50" width="110" height="40" as="geometry" />
        </mxCell>
        <mxCell id="kCRBrZalbVwqJB-VtD9c-7" value="is streming" style="rhombus;whiteSpace=wrap;html=1;" parent="kCRBrZalbVwqJB-VtD9c-2" vertex="1">
          <mxGeometry x="180" y="50" width="50" height="40" as="geometry" />
        </mxCell>
        <mxCell id="kCRBrZalbVwqJB-VtD9c-3" value="StreamingJobGraphGenerator" style="swimlane;html=1;startSize=20;" parent="kCRBrZalbVwqJB-VtD9c-1" vertex="1">
          <mxGeometry x="230" y="20" width="320" height="360" as="geometry" />
        </mxCell>
        <mxCell id="kCRBrZalbVwqJB-VtD9c-12" style="edgeStyle=orthogonalEdgeStyle;rounded=0;orthogonalLoop=1;jettySize=auto;html=1;entryX=0.5;entryY=0;entryDx=0;entryDy=0;" parent="kCRBrZalbVwqJB-VtD9c-3" source="kCRBrZalbVwqJB-VtD9c-6" target="kCRBrZalbVwqJB-VtD9c-13" edge="1">
          <mxGeometry relative="1" as="geometry">
            <mxPoint x="117" y="140" as="targetPoint" />
          </mxGeometry>
        </mxCell>
        <mxCell id="kCRBrZalbVwqJB-VtD9c-13" value="&lt;pre style=&quot;background-color: #2b2b2b ; color: #a9b7c6 ; font-family: &amp;#34;menlo&amp;#34; ; font-size: 9.0pt&quot;&gt;&lt;pre style=&quot;font-family: &amp;#34;menlo&amp;#34; ; font-size: 9pt&quot;&gt;&lt;span style=&quot;color: #ffc66d&quot;&gt;configureCheckpointing&lt;/span&gt;&lt;/pre&gt;&lt;pre style=&quot;font-family: &amp;#34;menlo&amp;#34; ; font-size: 9pt&quot;&gt;&lt;pre style=&quot;font-family: &amp;#34;menlo&amp;#34; ; font-size: 9pt&quot;&gt;&lt;span style=&quot;color: #9876aa&quot;&gt;jobGraph&lt;/span&gt;.setSnapshotSettings(settings)&lt;/pre&gt;&lt;/pre&gt;&lt;/pre&gt;" style="rounded=0;whiteSpace=wrap;html=1;" parent="kCRBrZalbVwqJB-VtD9c-3" vertex="1">
          <mxGeometry x="37" y="130" width="273" height="100" as="geometry" />
        </mxCell>
        <mxCell id="kCRBrZalbVwqJB-VtD9c-6" value="&lt;pre style=&quot;background-color: #2b2b2b ; color: #a9b7c6 ; font-family: &amp;#34;menlo&amp;#34; ; font-size: 9.0pt&quot;&gt;&lt;span style=&quot;color: #ffc66d&quot;&gt;createJobGraph&lt;/span&gt;&lt;/pre&gt;" style="rounded=0;whiteSpace=wrap;html=1;" parent="kCRBrZalbVwqJB-VtD9c-3" vertex="1">
          <mxGeometry x="110.5" y="50" width="126" height="40" as="geometry" />
        </mxCell>
        <mxCell id="kCRBrZalbVwqJB-VtD9c-9" style="edgeStyle=orthogonalEdgeStyle;rounded=0;orthogonalLoop=1;jettySize=auto;html=1;entryX=0;entryY=0.5;entryDx=0;entryDy=0;" parent="kCRBrZalbVwqJB-VtD9c-1" source="kCRBrZalbVwqJB-VtD9c-7" target="kCRBrZalbVwqJB-VtD9c-6" edge="1">
          <mxGeometry relative="1" as="geometry" />
        </mxCell>
        <mxCell id="kCRBrZalbVwqJB-VtD9c-11" value="yes" style="edgeLabel;html=1;align=center;verticalAlign=middle;resizable=0;points=[];" parent="kCRBrZalbVwqJB-VtD9c-9" vertex="1" connectable="0">
          <mxGeometry x="0.2" y="-2" relative="1" as="geometry">
            <mxPoint x="-1" y="-4" as="offset" />
          </mxGeometry>
        </mxCell>
      </root>
    </mxGraphModel>
  </diagram>
  <diagram id="8WwRtFNGggOJ9CP-uhb-" name="Page-2">
    <mxGraphModel dx="652" dy="358" grid="1" gridSize="10" guides="1" tooltips="1" connect="1" arrows="1" fold="1" page="1" pageScale="1" pageWidth="827" pageHeight="1169" math="0" shadow="0">
      <root>
        <mxCell id="7VZgReDYUciJBMXoe0BF-0" />
        <mxCell id="7VZgReDYUciJBMXoe0BF-1" parent="7VZgReDYUciJBMXoe0BF-0" />
        <mxCell id="F6F0eCZLSMVdBYBO7GZh-0" value="发起Checkpoint" style="swimlane;html=1;childLayout=stackLayout;resizeParent=1;resizeParentMax=0;startSize=20;" vertex="1" parent="7VZgReDYUciJBMXoe0BF-1">
          <mxGeometry x="230" y="150" width="1290" height="410" as="geometry" />
        </mxCell>
        <mxCell id="F6F0eCZLSMVdBYBO7GZh-1" value="ExecutionGraph" style="swimlane;html=1;startSize=20;" vertex="1" parent="F6F0eCZLSMVdBYBO7GZh-0">
          <mxGeometry y="20" width="250" height="390" as="geometry" />
        </mxCell>
        <mxCell id="F6F0eCZLSMVdBYBO7GZh-5" value="&lt;pre style=&quot;background-color: #2b2b2b ; color: #a9b7c6 ; font-family: &amp;#34;menlo&amp;#34; ; font-size: 9.0pt&quot;&gt;&lt;span style=&quot;color: #ffc66d&quot;&gt;enableCheckpointing&lt;/span&gt;&lt;/pre&gt;" style="shape=delay;whiteSpace=wrap;html=1;" vertex="1" parent="F6F0eCZLSMVdBYBO7GZh-1">
          <mxGeometry x="20" y="50" width="140" height="40" as="geometry" />
        </mxCell>
        <mxCell id="F6F0eCZLSMVdBYBO7GZh-9" value="&lt;pre style=&quot;background-color: #2b2b2b ; color: #a9b7c6 ; font-family: &amp;#34;menlo&amp;#34; ; font-size: 9.0pt&quot;&gt;&lt;pre style=&quot;font-family: &amp;#34;menlo&amp;#34; ; font-size: 9pt&quot;&gt;&lt;span style=&quot;color: #ffc66d&quot;&gt;registerJobStatusListener&lt;/span&gt;&lt;/pre&gt;&lt;/pre&gt;" style="rounded=0;whiteSpace=wrap;html=1;" vertex="1" parent="F6F0eCZLSMVdBYBO7GZh-1">
          <mxGeometry x="10" y="170" width="210" height="40" as="geometry" />
        </mxCell>
        <mxCell id="F6F0eCZLSMVdBYBO7GZh-2" value="CheckpointCoordinator" style="swimlane;html=1;startSize=20;" vertex="1" parent="F6F0eCZLSMVdBYBO7GZh-0">
          <mxGeometry x="250" y="20" width="310" height="390" as="geometry" />
        </mxCell>
        <mxCell id="F6F0eCZLSMVdBYBO7GZh-6" value="&lt;pre style=&quot;background-color: #2b2b2b ; color: #a9b7c6 ; font-family: &amp;#34;menlo&amp;#34; ; font-size: 9.0pt&quot;&gt;&lt;span style=&quot;color: #ffc66d&quot;&gt;createActivatorDeactivator&lt;/span&gt;&lt;/pre&gt;" style="rounded=0;whiteSpace=wrap;html=1;" vertex="1" parent="F6F0eCZLSMVdBYBO7GZh-2">
          <mxGeometry x="30" y="50" width="195" height="40" as="geometry" />
        </mxCell>
        <mxCell id="F6F0eCZLSMVdBYBO7GZh-16" style="edgeStyle=orthogonalEdgeStyle;rounded=0;orthogonalLoop=1;jettySize=auto;html=1;entryX=0.5;entryY=0;entryDx=0;entryDy=0;" edge="1" parent="F6F0eCZLSMVdBYBO7GZh-2" source="F6F0eCZLSMVdBYBO7GZh-14" target="F6F0eCZLSMVdBYBO7GZh-15">
          <mxGeometry relative="1" as="geometry" />
        </mxCell>
        <mxCell id="F6F0eCZLSMVdBYBO7GZh-14" value="&lt;pre style=&quot;background-color: #2b2b2b ; color: #a9b7c6 ; font-family: &amp;#34;menlo&amp;#34; ; font-size: 9.0pt&quot;&gt;&lt;pre style=&quot;font-family: &amp;#34;menlo&amp;#34; ; font-size: 9pt&quot;&gt;&lt;span style=&quot;color: #ffc66d&quot;&gt;preCheckBeforeTriggeringCheckpoint&lt;/span&gt;&lt;/pre&gt;&lt;/pre&gt;" style="whiteSpace=wrap;html=1;" vertex="1" parent="F6F0eCZLSMVdBYBO7GZh-2">
          <mxGeometry x="30" y="200" width="245" height="30" as="geometry" />
        </mxCell>
        <mxCell id="F6F0eCZLSMVdBYBO7GZh-18" style="edgeStyle=orthogonalEdgeStyle;rounded=0;orthogonalLoop=1;jettySize=auto;html=1;" edge="1" parent="F6F0eCZLSMVdBYBO7GZh-2" source="F6F0eCZLSMVdBYBO7GZh-15" target="F6F0eCZLSMVdBYBO7GZh-17">
          <mxGeometry relative="1" as="geometry" />
        </mxCell>
        <mxCell id="F6F0eCZLSMVdBYBO7GZh-15" value="&lt;pre style=&quot;background-color: #2b2b2b ; color: #a9b7c6 ; font-family: &amp;#34;menlo&amp;#34; ; font-size: 9.0pt&quot;&gt;&lt;pre style=&quot;font-family: &amp;#34;menlo&amp;#34; ; font-size: 9pt&quot;&gt;&lt;pre style=&quot;font-family: &amp;#34;menlo&amp;#34; ; font-size: 9pt&quot;&gt;&lt;pre style=&quot;font-family: &amp;#34;menlo&amp;#34; ; font-size: 9pt&quot;&gt;&lt;span style=&quot;color: #ffc66d&quot;&gt;checkConcurrentCheckpoints&lt;/span&gt;&lt;/pre&gt;&lt;/pre&gt;&lt;/pre&gt;&lt;/pre&gt;" style="whiteSpace=wrap;html=1;" vertex="1" parent="F6F0eCZLSMVdBYBO7GZh-2">
          <mxGeometry x="30" y="250" width="245" height="30" as="geometry" />
        </mxCell>
        <mxCell id="F6F0eCZLSMVdBYBO7GZh-17" value="&lt;pre style=&quot;background-color: #2b2b2b ; color: #a9b7c6 ; font-family: &amp;#34;menlo&amp;#34; ; font-size: 9.0pt&quot;&gt;&lt;pre style=&quot;font-family: &amp;#34;menlo&amp;#34; ; font-size: 9pt&quot;&gt;&lt;pre style=&quot;font-family: &amp;#34;menlo&amp;#34; ; font-size: 9pt&quot;&gt;&lt;pre style=&quot;font-family: &amp;#34;menlo&amp;#34; ; font-size: 9pt&quot;&gt;&lt;pre style=&quot;font-family: &amp;#34;menlo&amp;#34; ; font-size: 9pt&quot;&gt;&lt;span style=&quot;color: #ffc66d&quot;&gt;checkMinPauseBetweenCheckpoints&lt;/span&gt;&lt;/pre&gt;&lt;/pre&gt;&lt;/pre&gt;&lt;/pre&gt;&lt;/pre&gt;" style="whiteSpace=wrap;html=1;" vertex="1" parent="F6F0eCZLSMVdBYBO7GZh-2">
          <mxGeometry x="30" y="300" width="245" height="30" as="geometry" />
        </mxCell>
        <mxCell id="F6F0eCZLSMVdBYBO7GZh-4" value="CheckpointCoordinator.ScheduledTrigger" style="swimlane;html=1;startSize=20;" vertex="1" parent="F6F0eCZLSMVdBYBO7GZh-0">
          <mxGeometry x="560" y="20" width="320" height="390" as="geometry" />
        </mxCell>
        <mxCell id="F6F0eCZLSMVdBYBO7GZh-3" value="Lane 3" style="swimlane;html=1;startSize=20;" vertex="1" parent="F6F0eCZLSMVdBYBO7GZh-0">
          <mxGeometry x="880" y="20" width="90" height="390" as="geometry" />
        </mxCell>
        <mxCell id="F6F0eCZLSMVdBYBO7GZh-7" style="edgeStyle=orthogonalEdgeStyle;rounded=0;orthogonalLoop=1;jettySize=auto;html=1;entryX=0;entryY=0.5;entryDx=0;entryDy=0;" edge="1" parent="F6F0eCZLSMVdBYBO7GZh-0" source="F6F0eCZLSMVdBYBO7GZh-5" target="F6F0eCZLSMVdBYBO7GZh-6">
          <mxGeometry relative="1" as="geometry" />
        </mxCell>
        <mxCell id="F6F0eCZLSMVdBYBO7GZh-10" style="edgeStyle=orthogonalEdgeStyle;rounded=0;orthogonalLoop=1;jettySize=auto;html=1;entryX=1;entryY=0.5;entryDx=0;entryDy=0;exitX=0.5;exitY=1;exitDx=0;exitDy=0;" edge="1" parent="F6F0eCZLSMVdBYBO7GZh-0" source="F6F0eCZLSMVdBYBO7GZh-6" target="F6F0eCZLSMVdBYBO7GZh-9">
          <mxGeometry relative="1" as="geometry" />
        </mxCell>
        <mxCell id="F6F0eCZLSMVdBYBO7GZh-19" value="CheckpointCoordinator.ScheduledTrigger" style="swimlane;html=1;startSize=20;" vertex="1" parent="F6F0eCZLSMVdBYBO7GZh-0">
          <mxGeometry x="970" y="20" width="320" height="390" as="geometry" />
        </mxCell>
        <mxCell id="F6F0eCZLSMVdBYBO7GZh-13" style="edgeStyle=orthogonalEdgeStyle;rounded=0;orthogonalLoop=1;jettySize=auto;html=1;entryX=1;entryY=0.5;entryDx=0;entryDy=0;" edge="1" parent="7VZgReDYUciJBMXoe0BF-1" source="F6F0eCZLSMVdBYBO7GZh-12" target="F6F0eCZLSMVdBYBO7GZh-14">
          <mxGeometry relative="1" as="geometry">
            <mxPoint x="840" y="370" as="targetPoint" />
          </mxGeometry>
        </mxCell>
        <mxCell id="F6F0eCZLSMVdBYBO7GZh-12" value="&lt;pre style=&quot;background-color: #2b2b2b ; color: #a9b7c6 ; font-family: &amp;#34;menlo&amp;#34; ; font-size: 9.0pt&quot;&gt;&lt;span style=&quot;color: #ffc66d&quot;&gt;triggerCheckpoint&lt;/span&gt;&lt;/pre&gt;" style="whiteSpace=wrap;html=1;" vertex="1" parent="7VZgReDYUciJBMXoe0BF-1">
          <mxGeometry x="810" y="220" width="140" height="30" as="geometry" />
        </mxCell>
      </root>
    </mxGraphModel>
  </diagram>
</mxfile>
